<svg width="142" height="137" viewBox="0 0 142 137" fill="none" xmlns="http://www.w3.org/2000/svg">
<path fill-rule="evenodd" clip-rule="evenodd" d="M31.1268 11.0742C7.00496 27.0444 -5.28248 56.5911 2.69772 85.5023C12.8107 122.108 51.5898 143.832 89.3232 134.021C120.157 126.009 140.738 99.4238 141.728 69.9986C137.462 94.1432 119.188 114.893 93.1914 121.648C57.5766 130.904 20.9791 110.404 11.4377 75.8607C4.73285 51.5945 13.1661 26.8551 31.1268 11.0742Z" fill="white"/>
<path fill-rule="evenodd" clip-rule="evenodd" d="M110.176 105.739C130.527 92.2568 140.898 67.328 134.159 42.9265C125.628 12.0411 92.8983 -6.28872 61.061 1.98707C35.0434 8.74835 17.6751 31.1823 16.8457 56.0096C20.449 35.6312 35.8658 18.1262 57.7993 12.4265C87.8523 4.61722 118.735 21.9125 126.785 51.0672C132.444 71.5403 125.328 92.4191 110.176 105.739Z" fill="white"/>
<path d="M109.956 86.0085C115.184 86.0085 119.422 81.8981 119.422 76.8275C119.422 71.757 115.184 67.6465 109.956 67.6465C104.728 67.6465 100.49 71.757 100.49 76.8275C100.49 81.8981 104.728 86.0085 109.956 86.0085Z" fill="white"/>
<path d="M120.047 75.4288C119.401 71.0899 115.887 67.6816 111.414 67.0553V64.4873C111.414 57.4024 105.861 51.6339 99.0349 51.6339C92.4059 51.6339 86.856 57.2272 86.6565 64.1032H86.7409L86.6565 64.1173V91.9529C86.6565 100.851 79.7974 108.078 71.3653 108.078C62.9335 108.078 56.0742 100.841 56.0742 91.9529V89.5416C58.1858 89.5416 60.4432 88.0573 60.4432 83.8918V80.3396C69.7897 78.0217 76.4623 70.2374 76.4623 61.4125V58.4675H73.5499L73.4887 40.0843C73.4676 36.6815 70.9499 33.7759 67.4975 33.1701C66.7528 30.9574 64.2993 29.749 62.0177 30.4714C59.7364 31.1937 58.4905 33.5731 59.2354 35.7862C59.9801 37.9991 62.4334 39.2074 64.715 38.485C65.9367 38.098 66.9191 37.2065 67.3985 36.0501C69.2642 36.5651 70.5567 38.2112 70.5717 40.0927L70.6372 58.4675H67.7247V61.4534C67.6085 66.3665 64.2125 70.636 59.3423 71.9918C56.7362 72.7937 53.9385 72.7937 51.3326 71.9918C46.4679 70.6314 43.0795 66.3627 42.9676 61.4534V58.4675H38.5986V40.1053C38.6071 38.1962 39.9309 36.5282 41.8316 36.0318C42.718 38.2202 45.2657 39.2972 47.522 38.4376C49.7784 37.578 50.8887 35.1069 50.0023 32.9186C49.1161 30.7302 46.5682 29.6531 44.3121 30.5127C43.0895 30.9787 42.1463 31.9511 41.7413 33.1632C38.2512 33.7416 35.6957 36.6711 35.6861 40.1053V58.4675H32.7734V61.4053C32.7734 70.2404 39.4506 78.0272 48.7927 80.3396V83.8918C48.7927 88.0573 51.0499 89.5416 53.1618 89.5416V91.9529C53.1618 102.405 61.327 110.903 71.3653 110.903C81.4037 110.903 89.5692 102.395 89.5692 91.9529V64.1852C89.7147 58.8248 93.9643 54.4631 99.0349 54.4631C104.254 54.4631 108.501 58.9603 108.501 64.4917V67.0553C102.929 67.8353 99.0634 72.8489 99.8676 78.2536C100.672 83.6583 105.841 87.4072 111.414 86.627C116.986 85.8471 120.851 80.8332 120.047 75.4288ZM63.3557 35.868C62.5516 35.868 61.8994 35.2354 61.8994 34.4555C61.8994 33.6754 62.5516 33.043 63.3557 33.043C64.16 33.043 64.812 33.6754 64.812 34.4555C64.812 35.2354 64.16 35.868 63.3557 35.868ZM45.8801 33.043C46.6844 33.043 47.3364 33.6754 47.3364 34.4555C47.3364 35.2354 46.6844 35.868 45.8801 35.868C45.0759 35.868 44.4239 35.2354 44.4239 34.4555C44.4239 33.6754 45.0759 33.043 45.8801 33.043ZM35.6861 61.4053V61.2923H40.0549V61.4534C40.1642 67.5924 44.3752 72.9501 50.4499 74.6784C53.6333 75.656 57.05 75.656 60.2334 74.6784C66.311 72.9524 70.526 67.5945 70.6372 61.4534V61.2923H73.5499V61.4053C73.5499 69.2629 67.3051 76.1769 58.6955 77.8493C56.6738 78.242 54.6031 78.3404 52.5515 78.1417C51.876 78.0782 51.2047 77.9796 50.5403 77.8465C41.9306 76.1769 35.6861 69.2629 35.6861 61.4053ZM53.1618 86.7168C51.851 86.7168 51.7054 84.7394 51.7054 83.8918V80.8946C51.8218 80.9087 51.9413 80.9144 52.0593 80.9256C52.2049 80.9412 52.3505 80.9526 52.496 80.9652C53.185 81.0246 53.8797 81.0641 54.58 81.0655H54.6529C55.3519 81.0655 56.0451 81.0246 56.7295 80.9652C56.8753 80.9526 57.0296 80.9412 57.1795 80.9256C57.2947 80.9129 57.4141 80.9087 57.529 80.8946V83.8918C57.529 84.7394 57.3834 86.7168 56.0727 86.7168H53.1618ZM109.957 83.8918C105.936 83.8918 102.676 80.73 102.676 76.8295C102.676 72.9292 105.936 69.7672 109.957 69.7672C113.979 69.7672 117.239 72.9292 117.239 76.8295C117.234 80.7281 113.977 83.8872 109.957 83.8918Z" fill="white"/>
<path d="M109.957 72.5898C107.544 72.5898 105.588 74.487 105.588 76.8272C105.588 79.1676 107.544 81.0647 109.957 81.0647C112.369 81.0647 114.325 79.1676 114.325 76.8272C114.325 74.487 112.369 72.5898 109.957 72.5898ZM109.957 78.2397C109.152 78.2397 108.5 77.6073 108.5 76.8272C108.5 76.0472 109.152 75.4149 109.957 75.4149C110.761 75.4149 111.413 76.0472 111.413 76.8272C111.413 77.6073 110.761 78.2397 109.957 78.2397Z" fill="#01A998"/>
</svg>
