<svg width="42" height="41" viewBox="0 0 42 41" fill="none" xmlns="http://www.w3.org/2000/svg">
<path fill-rule="evenodd" clip-rule="evenodd" d="M9.01194 3.74805C1.96643 8.432 -1.62249 17.0979 0.70837 25.5774C3.66216 36.3136 14.9888 42.6851 26.0099 39.8077C35.0159 37.4578 41.0272 29.6605 41.3163 21.0303C40.0704 28.1118 34.7329 34.1977 27.1398 36.1788C16.7374 38.8936 6.04799 32.881 3.26113 22.7496C1.30279 15.6324 3.76598 8.37649 9.01194 3.74805Z" fill="#25406E"/>
<path fill-rule="evenodd" clip-rule="evenodd" d="M32.1007 31.5126C38.0449 27.5584 41.074 20.247 39.1055 13.0901C36.6138 4.03159 27.0543 -1.34445 17.7552 1.0828C10.156 3.06585 5.08307 9.6456 4.84082 16.9273C5.89327 10.9505 10.3962 5.81633 16.8025 4.14462C25.5804 1.85421 34.6005 6.92684 36.9518 15.4777C38.6047 21.4824 36.5263 27.606 32.1007 31.5126Z" fill="#099DD0"/>
<path d="M32.0363 25.7253C33.5633 25.7253 34.8011 24.5198 34.8011 23.0326C34.8011 21.5454 33.5633 20.3398 32.0363 20.3398C30.5093 20.3398 29.2715 21.5454 29.2715 23.0326C29.2715 24.5198 30.5093 25.7253 32.0363 25.7253Z" fill="#44AD6B"/>
<path d="M34.9839 22.6227C34.7954 21.3502 33.7689 20.3505 32.4624 20.1669V19.4137C32.4624 17.3357 30.8405 15.6438 28.8468 15.6438C26.9106 15.6438 25.2896 17.2843 25.2313 19.301H25.256L25.2313 19.3052V27.4692C25.2313 30.0791 23.2279 32.1984 20.7651 32.1984C18.3023 32.1984 16.2989 30.0762 16.2989 27.4692V26.762C16.9156 26.762 17.575 26.3266 17.575 25.1049V24.0631C20.3049 23.3832 22.2538 21.1001 22.2538 18.5118V17.6481H21.4031L21.3853 12.2564C21.3791 11.2584 20.6437 10.4062 19.6354 10.2285C19.4179 9.57953 18.7012 9.22509 18.0348 9.43696C17.3685 9.64884 17.0046 10.3467 17.2222 10.9958C17.4397 11.6448 18.1562 11.9992 18.8226 11.7873C19.1795 11.6738 19.4664 11.4124 19.6065 11.0732C20.1514 11.2242 20.5289 11.707 20.5333 12.2589L20.5524 17.6481H19.7017V18.5238C19.6678 19.9648 18.6759 21.2171 17.2534 21.6147C16.4922 21.8499 15.675 21.8499 14.9139 21.6147C13.493 21.2157 12.5033 19.9637 12.4707 18.5238V17.6481H11.1946V12.2626C11.197 11.7026 11.5837 11.2134 12.1389 11.0678C12.3978 11.7097 13.1419 12.0255 13.8009 11.7734C14.46 11.5213 14.7843 10.7965 14.5254 10.1547C14.2665 9.51288 13.5223 9.19697 12.8634 9.44908C12.5063 9.58578 12.2308 9.87097 12.1125 10.2265C11.0931 10.3961 10.3467 11.2553 10.3439 12.2626V17.6481H9.49316V18.5097C9.49316 21.101 11.4434 23.3848 14.1721 24.0631V25.1049C14.1721 26.3266 14.8314 26.762 15.4482 26.762V27.4692C15.4482 30.5348 17.8331 33.027 20.7651 33.027C23.6971 33.027 26.0821 30.5319 26.0821 27.4692V19.3251C26.1246 17.7529 27.3658 16.4736 28.8468 16.4736C30.3713 16.4736 31.6116 17.7926 31.6116 19.415V20.1669C29.9841 20.3956 28.8551 21.8661 29.09 23.4512C29.3249 25.0364 30.8348 26.1359 32.4624 25.9071C34.0899 25.6784 35.2189 24.2078 34.9839 22.6227ZM18.4256 11.0198C18.1908 11.0198 18.0003 10.8342 18.0003 10.6055C18.0003 10.3767 18.1908 10.1912 18.4256 10.1912C18.6606 10.1912 18.851 10.3767 18.851 10.6055C18.851 10.8342 18.6606 11.0198 18.4256 11.0198ZM13.3213 10.1912C13.5563 10.1912 13.7467 10.3767 13.7467 10.6055C13.7467 10.8342 13.5563 11.0198 13.3213 11.0198C13.0865 11.0198 12.896 10.8342 12.896 10.6055C12.896 10.3767 13.0865 10.1912 13.3213 10.1912ZM10.3439 18.5097V18.4766H11.6199V18.5238C11.6518 20.3244 12.8818 21.8958 14.6561 22.4027C15.5859 22.6894 16.5839 22.6894 17.5137 22.4027C19.2888 21.8964 20.5199 20.325 20.5524 18.5238V18.4766H21.4031V18.5097C21.4031 20.8143 19.5792 22.8422 17.0645 23.3327C16.474 23.4478 15.8692 23.4767 15.27 23.4184C15.0726 23.3998 14.8766 23.3709 14.6825 23.3319C12.1678 22.8422 10.3439 20.8143 10.3439 18.5097ZM15.4482 25.9335C15.0653 25.9335 15.0228 25.3535 15.0228 25.1049V24.2258C15.0568 24.23 15.0917 24.2316 15.1262 24.2349C15.1687 24.2395 15.2112 24.2428 15.2537 24.2465C15.455 24.264 15.6579 24.2755 15.8624 24.276H15.8837C16.0879 24.276 16.2903 24.264 16.4902 24.2465C16.5328 24.2428 16.5779 24.2395 16.6217 24.2349C16.6553 24.2312 16.6902 24.23 16.7238 24.2258V25.1049C16.7238 25.3535 16.6813 25.9335 16.2984 25.9335H15.4482ZM32.037 25.1049C30.8624 25.1049 29.9102 24.1776 29.9102 23.0336C29.9102 21.8896 30.8624 20.9622 32.037 20.9622C33.2116 20.9622 34.1638 21.8896 34.1638 23.0336C34.1624 24.177 33.211 25.1035 32.037 25.1049Z" fill="#25406E"/>
<path d="M32.0368 21.791C31.332 21.791 30.7607 22.3474 30.7607 23.0338C30.7607 23.7202 31.332 24.2766 32.0368 24.2766C32.7415 24.2766 33.3128 23.7202 33.3128 23.0338C33.3128 22.3474 32.7415 21.791 32.0368 21.791ZM32.0368 23.4481C31.8018 23.4481 31.6114 23.2626 31.6114 23.0338C31.6114 22.8051 31.8018 22.6196 32.0368 22.6196C32.2717 22.6196 32.4621 22.8051 32.4621 23.0338C32.4621 23.2626 32.2717 23.4481 32.0368 23.4481Z" fill="#25406E"/>
</svg>
