<svg width="200" height="200" viewBox="0 0 200 200" fill="none" xmlns="http://www.w3.org/2000/svg">
<path d="M199.27 111.978C205.885 57.1525 166.803 7.34517 111.978 0.729998C57.1525 -5.88518 7.34517 33.1968 0.729997 88.0222C-5.88518 142.847 33.1969 192.655 88.0222 199.27C142.848 205.885 192.655 166.803 199.27 111.978Z" fill="#CEEEEE"/>
<path d="M137.841 46.5078H62.052C56.0732 46.5078 51.2264 51.3546 51.2264 57.3334V142.624C51.2264 148.603 56.0732 153.449 62.052 153.449H137.841C143.82 153.449 148.667 148.603 148.667 142.624V57.3334C148.667 51.3546 143.82 46.5078 137.841 46.5078Z" fill="#0BABA9"/>
<path d="M139.853 56.4769H60.0402V143.5H139.853V56.4769Z" fill="#CEEEEE"/>
<path d="M76.8712 66.8245H66.5934V77.1024H76.8712V66.8245Z" fill="#0BABA9"/>
<path d="M133.29 68.0595H82.3488V75.8675H133.29V68.0595Z" fill="#0BABA9"/>
<path d="M76.8712 85.498H66.5934V95.7758H76.8712V85.498Z" fill="#0BABA9"/>
<path d="M133.29 86.7329H82.3488V94.5409H133.29V86.7329Z" fill="#0BABA9"/>
<path d="M76.8712 104.181H66.5934V114.459H76.8712V104.181Z" fill="#0BABA9"/>
<path d="M133.29 105.416H82.3488V113.224H133.29V105.416Z" fill="#0BABA9"/>
<path d="M76.8712 122.865H66.5934V133.143H76.8712V122.865Z" fill="#0BABA9"/>
<path d="M133.29 124.1H82.3488V131.908H133.29V124.1Z" fill="#0BABA9"/>
</svg>
