<svg width="200" height="200" viewBox="0 0 200 200" fill="none" xmlns="http://www.w3.org/2000/svg">
<path d="M170.711 170.711C209.763 131.658 209.763 68.3418 170.711 29.2893C131.658 -9.7631 68.3417 -9.76311 29.2893 29.2893C-9.76311 68.3417 -9.76311 131.658 29.2893 170.711C68.3417 209.763 131.658 209.763 170.711 170.711Z" fill="white"/>
<path d="M142.071 151.923H57.9375V59.333H142.071V151.923Z" fill="#01A998"/>
<path d="M145.457 61.7134H54.5508V48.0879H145.457V61.7134Z" fill="#01A998"/>
<path d="M129.262 110.947H70.7461V106.783H129.262V110.947Z" fill="white"/>
<path d="M129.262 142.949H70.7461V138.775H129.262V142.949Z" fill="#0BABA9"/>
<path d="M99.9991 101.017C109.389 101.017 117.001 93.4046 117.001 84.0147C117.001 74.6248 109.389 67.0127 99.9991 67.0127C90.6091 67.0127 82.9971 74.6248 82.9971 84.0147C82.9971 93.4046 90.6091 101.017 99.9991 101.017Z" fill="white"/>
<path d="M103.027 72.5703H96.9809C96.1943 72.5703 95.5566 73.208 95.5566 73.9946V94.0245C95.5566 94.8111 96.1943 95.4488 96.9809 95.4488H103.027C103.813 95.4488 104.451 94.8111 104.451 94.0245V73.9946C104.451 73.208 103.813 72.5703 103.027 72.5703Z" fill="#01A998"/>
<path d="M110.019 79.5615H89.9888C89.2021 79.5615 88.5645 80.1992 88.5645 80.9858V87.0316C88.5645 87.8183 89.2021 88.4559 89.9888 88.4559H110.019C110.805 88.4559 111.443 87.8183 111.443 87.0316V80.9858C111.443 80.1992 110.805 79.5615 110.019 79.5615Z" fill="#01A998"/>
<path d="M127.07 108.864H72.9268V140.856H127.07V108.864Z" fill="white"/>
<path d="M98.2157 112.56H76.6221V137.171H98.2157V112.56Z" fill="#01A998"/>
<path d="M123.386 112.56H101.792V137.171H123.386V112.56Z" fill="#01A998"/>
</svg>
