<svg width="200" height="200" viewBox="0 0 200 200" fill="none" xmlns="http://www.w3.org/2000/svg">
<path d="M199.312 111.631C205.735 56.783 166.48 7.11214 111.631 0.688358C56.783 -5.73543 7.11214 33.5204 0.688358 88.3687C-5.73543 143.217 33.5204 192.888 88.3687 199.312C143.217 205.735 192.888 166.48 199.312 111.631Z" fill="#CEEEEE"/>
<path d="M99.7589 143.49C96.9178 146.332 93.5447 148.586 89.8323 150.124C86.1199 151.662 82.1409 152.454 78.1225 152.454C74.1041 152.454 70.1251 151.662 66.4127 150.124C62.7003 148.586 59.3272 146.332 56.4861 143.49C53.6443 140.649 51.3901 137.276 49.8521 133.563C48.3141 129.851 47.5225 125.872 47.5225 121.854C47.5225 117.835 48.3141 113.856 49.8521 110.144C51.3901 106.431 53.6443 103.058 56.4861 100.217L100.227 56.4763C103.068 53.6346 106.441 51.3803 110.154 49.8423C113.866 48.3043 117.845 47.5127 121.863 47.5127C125.882 47.5127 129.861 48.3043 133.573 49.8423C137.286 51.3803 140.659 53.6346 143.5 56.4763C146.341 59.3174 148.596 62.6905 150.134 66.4029C151.672 70.1153 152.463 74.0943 152.463 78.1127C152.463 82.1311 151.672 86.1101 150.134 89.8226C148.596 93.535 146.341 96.908 143.5 99.7491L99.7589 143.49Z" fill="white"/>
<path d="M143.491 56.4861C140.65 53.6443 137.276 51.3901 133.564 49.8521C129.852 48.3141 125.873 47.5225 121.854 47.5225C117.836 47.5225 113.857 48.3141 110.144 49.8521C106.432 51.3901 103.059 53.6443 100.218 56.4861L78.3076 78.3964L121.67 121.629L143.58 99.719C149.295 93.971 152.496 86.1898 152.479 78.084C152.462 69.9783 149.23 62.2104 143.491 56.4861Z" fill="#0BABA9"/>
</svg>
